<svg width="8" height="8" viewBox="0 0 8 8" fill="none" xmlns="http://www.w3.org/2000/svg">
<path d="M1.57471 3.14941C1.92259 3.14941 2.20459 3.43142 2.20459 3.7793C2.20459 4.12717 1.92259 4.40918 1.57471 4.40918C1.22683 4.40918 0.944824 4.12717 0.944824 3.7793C0.944824 3.43142 1.22683 3.14941 1.57471 3.14941Z" fill="#141414" fill-opacity="0.6"/>
<path d="M3.77931 3.14941C4.12718 3.14941 4.40919 3.43142 4.40919 3.7793C4.40919 4.12717 4.12718 4.40918 3.77931 4.40918C3.43143 4.40918 3.14942 4.12717 3.14942 3.7793C3.14942 3.43142 3.43143 3.14941 3.77931 3.14941Z" fill="#141414" fill-opacity="0.6"/>
<path d="M5.9839 3.14941C6.33178 3.14941 6.61379 3.43142 6.61379 3.7793C6.61379 4.12717 6.33178 4.40918 5.9839 4.40918C5.63603 4.40918 5.35402 4.12717 5.35402 3.7793C5.35402 3.43142 5.63603 3.14941 5.9839 3.14941Z" fill="#141414" fill-opacity="0.6"/>
</svg>
