<svg width="20" height="20" viewBox="0 0 20 20" fill="none" xmlns="http://www.w3.org/2000/svg">
<path d="M16.25 10.0003C16.25 7.92333 15.2376 6.08277 13.6759 4.94492C13.304 4.67394 13.2219 4.15235 13.4928 3.78037C13.7638 3.40844 14.2854 3.32637 14.6574 3.59727C16.6312 5.03531 17.9166 7.36802 17.9166 10.0003C17.9165 13.9733 14.9895 17.2616 11.1743 17.829L11.4225 18.0772C11.7479 18.4027 11.7479 18.9302 11.4225 19.2556C11.0971 19.5811 10.5696 19.5811 10.2441 19.2556L8.57745 17.589C8.2521 17.2635 8.25204 16.736 8.57745 16.4106L10.2441 14.7439C10.5695 14.4186 11.0971 14.4186 11.4225 14.7439C11.7479 15.0693 11.7479 15.5969 11.4225 15.9223L11.2125 16.1314C14.0838 15.5669 16.2498 13.037 16.25 10.0003ZM2.08331 10.0003C2.08331 6.02708 5.01037 2.73807 8.82566 2.17067L8.57745 1.92246C8.25202 1.59703 8.25202 1.06951 8.57745 0.744078C8.90289 0.418641 9.4304 0.418641 9.75584 0.744078L11.4225 2.41074C11.7479 2.73618 11.7479 3.26369 11.4225 3.58913L9.75584 5.2558C9.4304 5.58123 8.90289 5.58123 8.57745 5.2558C8.25202 4.93036 8.25202 4.40285 8.57745 4.07741L8.78579 3.86826C5.91521 4.43347 3.74998 6.96396 3.74998 10.0003C3.75009 12.0771 4.76236 13.9178 6.32404 15.0556C6.69579 15.3266 6.7779 15.8474 6.50714 16.2193C6.23614 16.5913 5.71457 16.6734 5.34259 16.4024C3.36887 14.9645 2.08342 12.6324 2.08331 10.0003Z" fill="#141414" fill-opacity="0.6"/>
</svg>
