<svg width="20" height="20" viewBox="0 0 20 20" fill="none" xmlns="http://www.w3.org/2000/svg">
<path d="M15.6006 15.8545C15.8942 15.5001 16.4197 15.4502 16.7741 15.7438C17.1281 16.0375 17.1774 16.563 16.884 16.9173C16.6534 17.1957 16.3725 17.4316 16.0531 17.6074C15.6939 17.805 15.3142 17.881 14.9194 17.9159C14.5364 17.9496 14.0674 17.9492 13.5148 17.9492H6.486C5.93329 17.9492 5.46368 17.9496 5.08057 17.9159C4.68588 17.881 4.30603 17.8049 3.94694 17.6074C3.62757 17.4317 3.34661 17.1956 3.11605 16.9173C2.8227 16.5629 2.87238 16.0373 3.22673 15.7438C3.58116 15.4505 4.10672 15.5002 4.40023 15.8545C4.50158 15.9767 4.6208 16.0754 4.75016 16.1466C4.82455 16.1875 4.94671 16.2309 5.22705 16.2557C5.51998 16.2815 5.9037 16.2826 6.486 16.2826H13.5148C14.097 16.2826 14.4801 16.2815 14.7729 16.2557C15.0539 16.2309 15.1755 16.1876 15.2498 16.1466C15.3795 16.0753 15.4991 15.977 15.6006 15.8545Z" fill="#141414" fill-opacity="0.6"/>
<path d="M10 6.37614C10.9142 6.37614 11.6553 7.11723 11.6553 8.03141C11.6552 8.9455 10.9141 9.68669 10 9.68669C9.08589 9.68669 8.34484 8.9455 8.34473 8.03141C8.34473 7.11723 9.08582 6.37614 10 6.37614Z" fill="#141414" fill-opacity="0.6"/>
<path fill-rule="evenodd" clip-rule="evenodd" d="M14.0129 1.44775C14.6461 1.44775 15.176 1.44716 15.6071 1.48519C16.0498 1.52429 16.4648 1.60922 16.8547 1.82373C17.4513 2.15209 17.9254 2.66901 18.2186 3.2902C18.4066 3.6887 18.4813 4.11254 18.5164 4.57601C18.5509 5.03155 18.5506 5.59377 18.5506 6.28093V9.78109C18.5506 10.4683 18.5509 11.0304 18.5164 11.486C18.4814 11.9495 18.4065 12.3733 18.2186 12.7718C17.9255 13.393 17.4513 13.9107 16.8547 14.2391C16.4649 14.4535 16.0497 14.5377 15.6071 14.5768C15.176 14.6149 14.6461 14.6143 14.0129 14.6143H5.98796C5.3547 14.6143 4.82479 14.6148 4.39372 14.5768C3.95108 14.5378 3.53602 14.4535 3.14616 14.2391C2.54936 13.9107 2.07542 13.3931 1.78223 12.7718C1.59416 12.3732 1.51945 11.9496 1.48438 11.486C1.44992 11.0304 1.4502 10.4683 1.4502 9.78109V6.28093C1.4502 5.59377 1.44991 5.03155 1.48438 4.57601C1.51947 4.11256 1.59421 3.68868 1.78223 3.2902C2.07544 2.66907 2.54951 2.15203 3.14616 1.82373C3.53606 1.60933 3.95104 1.52426 4.39372 1.48519C4.82479 1.44719 5.35472 1.44775 5.98796 1.44775H14.0129ZM5.98796 3.11442C5.32512 3.11442 4.88108 3.1153 4.5402 3.14535C4.21163 3.17435 4.05449 3.22596 3.94938 3.28369C3.67514 3.43459 3.44011 3.68228 3.28939 4.00147C3.22515 4.1376 3.17417 4.33217 3.14616 4.70215C3.11757 5.0802 3.11686 5.56843 3.11686 6.28093V9.78109C3.11686 10.4936 3.11759 10.9818 3.14616 11.3599C3.17416 11.73 3.22514 11.9244 3.28939 12.0605C3.4401 12.38 3.67502 12.6274 3.94938 12.7783C4.05449 12.8361 4.2114 12.8876 4.5402 12.9167C4.88109 12.9467 5.32509 12.9476 5.98796 12.9476H14.0129C14.6757 12.9476 15.1197 12.9467 15.4606 12.9167C15.7893 12.8876 15.9464 12.8361 16.0514 12.7783C16.3256 12.6273 16.5608 12.3798 16.7114 12.0605C16.7756 11.9244 16.8267 11.7297 16.8547 11.3599C16.8832 10.9818 16.884 10.4935 16.884 9.78109V6.28093C16.884 5.56843 16.8832 5.0802 16.8547 4.70215C16.8266 4.33213 16.7757 4.13761 16.7114 4.00147C16.5608 3.6822 16.3257 3.43465 16.0514 3.28369C15.9464 3.22589 15.7893 3.17439 15.4606 3.14535C15.1197 3.11527 14.6757 3.11442 14.0129 3.11442H5.98796Z" fill="#141414" fill-opacity="0.6"/>
</svg>
