<svg width="28" height="28" viewBox="0 0 28 28" fill="none" xmlns="http://www.w3.org/2000/svg">
<path d="M16.3333 2.64771V7.46667C16.3333 8.12006 16.3333 8.44676 16.4605 8.69632C16.5723 8.91585 16.7508 9.09432 16.9703 9.20618C17.2199 9.33334 17.5466 9.33334 18.2 9.33334H23.019M14 20.9999V13.9999M10.5 17.4999H17.5M16.3333 2.33325H10.2667C8.30649 2.33325 7.3264 2.33325 6.5777 2.71473C5.91914 3.05029 5.38371 3.58572 5.04815 4.24429C4.66667 4.99298 4.66667 5.97307 4.66667 7.93325V20.0666C4.66667 22.0268 4.66667 23.0069 5.04815 23.7556C5.38371 24.4141 5.91914 24.9496 6.5777 25.2851C7.3264 25.6666 8.30649 25.6666 10.2667 25.6666H17.7333C19.6935 25.6666 20.6736 25.6666 21.4223 25.2851C22.0809 24.9496 22.6163 24.4141 22.9519 23.7556C23.3333 23.0069 23.3333 22.0268 23.3333 20.0666V9.33325L16.3333 2.33325Z" stroke="white" stroke-width="2.3" stroke-linecap="round" stroke-linejoin="round"/>
</svg>
