<svg width="20" height="20" viewBox="0 0 20 20" fill="none" xmlns="http://www.w3.org/2000/svg">
<path d="M9.21972 5.00829C9.21972 5.75077 9.21942 6.35305 9.25921 6.84012C9.29972 7.33596 9.3863 7.77893 9.59596 8.19042C9.92622 8.8383 10.453 9.36522 11.1009 9.69537C11.5122 9.90493 11.9545 9.9905 12.4501 10.031C12.9372 10.0708 13.5395 10.0705 14.2819 10.0705H17.078V12.665C17.078 13.4074 17.0783 14.0097 17.0385 14.4968C16.9979 14.9924 16.9113 15.4346 16.7017 15.846C16.3715 16.494 15.8448 17.0207 15.1968 17.3509C14.7854 17.5605 14.3432 17.6472 13.8476 17.6877C13.3605 17.7275 12.7582 17.7272 12.0157 17.7272H7.92208C7.17964 17.7272 6.5773 17.7275 6.09025 17.6877C5.5946 17.6472 5.15242 17.5605 4.74106 17.3509C4.09302 17.0207 3.56633 16.494 3.2361 15.846C3.0265 15.4346 2.93988 14.9924 2.89935 14.4968C2.85956 14.0097 2.85986 13.4074 2.85986 12.665V7.2734C2.85986 6.53096 2.85956 5.92862 2.89935 5.44157C2.93988 4.94592 3.0265 4.50373 3.2361 4.09238C3.56633 3.44434 4.09302 2.91765 4.74106 2.58742C5.15242 2.37782 5.5946 2.2912 6.09025 2.25067C6.5773 2.21088 7.17964 2.21118 7.92208 2.21118H9.21972V5.00829Z" fill="#7D7D7D"/>
<path d="M10.7181 2.21557C10.8341 2.22166 10.9496 2.2354 11.0636 2.26274C11.2546 2.3086 11.438 2.38496 11.6055 2.4876C11.8118 2.61412 11.9795 2.78813 12.1485 2.95708L16.3321 7.14068C16.501 7.30962 16.675 7.47734 16.8015 7.68365C16.9042 7.85114 16.9805 8.0345 17.0264 8.22552C17.0539 8.34022 17.0664 8.45651 17.0725 8.57324H14.2819C13.5151 8.57324 12.9848 8.57285 12.573 8.53923C12.1698 8.50629 11.9462 8.44459 11.781 8.36044C11.4147 8.17381 11.1165 7.87659 10.9298 7.51033C10.8456 7.34518 10.785 7.12151 10.7521 6.71837C10.7184 6.30641 10.7181 5.77553 10.7181 5.00829V2.21557Z" fill="#7D7D7D"/>
</svg>
