<svg width="10" height="10" viewBox="0 0 10 10" fill="none" xmlns="http://www.w3.org/2000/svg">
<g clip-path="url(#clip0_1_924)">
<path d="M6.53135 2.96474C6.53312 2.96474 6.53548 2.96474 6.53784 2.96474C6.59955 2.96474 6.65683 2.98393 6.70378 3.017L6.70289 3.01641C6.73714 3.04623 6.76017 3.08815 6.76578 3.13539V3.13628C6.77169 3.1723 6.77494 3.21364 6.77494 3.25586C6.77494 3.27505 6.77435 3.29395 6.77287 3.31284V3.31019C6.70644 4.00966 6.41826 5.70592 6.27182 6.48894C6.20981 6.82052 6.08787 6.93153 5.96977 6.94216C5.71319 6.96608 5.51832 6.77269 5.26971 6.6097C4.88056 6.3543 4.66059 6.19546 4.28295 5.94655C3.84627 5.65927 4.12942 5.50071 4.37803 5.24265C4.44328 5.17475 5.57442 4.14577 5.59656 4.05247C5.59774 4.04686 5.59833 4.04066 5.59833 4.03416C5.59833 4.01113 5.58977 3.99017 5.57589 3.97422C5.56054 3.96419 5.54135 3.95858 5.52127 3.95858C5.50798 3.95858 5.49529 3.96123 5.48348 3.96566L5.48407 3.96537C5.44509 3.97422 4.82347 4.38503 3.61921 5.19778C3.48782 5.30141 3.32189 5.36696 3.14119 5.37464H3.13942C2.88343 5.34363 2.65106 5.28665 2.4305 5.20545L2.45235 5.21254C2.1754 5.12219 1.95543 5.07465 1.97433 4.92171C1.98437 4.84219 2.094 4.76079 2.30324 4.67753C3.59215 4.11595 4.45165 3.74579 4.88174 3.56706C5.35622 3.31521 5.90629 3.10794 6.4847 2.97359L6.53135 2.96474ZM4.70311 0.302979C2.25187 0.308884 0.266846 2.29745 0.266846 4.74957C0.266846 7.20524 2.25748 9.19617 4.71344 9.19617C7.1694 9.19617 9.16004 7.20553 9.16004 4.74957C9.16004 2.29745 7.17501 0.308884 4.72437 0.302979H4.72377C4.71689 0.302979 4.71 0.302979 4.70311 0.302979Z" fill="#1B99FA"/>
</g>
<defs>
<clipPath id="clip0_1_924">
<rect width="9.44828" height="9.44828" fill="white"/>
</clipPath>
</defs>
</svg>
