<svg width="29" height="32" viewBox="0 0 29 32" fill="none" xmlns="http://www.w3.org/2000/svg">
<path fill-rule="evenodd" clip-rule="evenodd" d="M14.6914 0.0146988L14.9805 0.0615738L15.1592 0.105519C15.5692 0.226291 15.9329 0.446863 16.2188 0.609425L26.875 6.669C27.2196 6.86492 27.6868 7.111 28.0381 7.50103C28.2465 7.73254 28.4166 7.99675 28.543 8.28228L28.6553 8.57427L28.707 8.7647C28.7825 9.08334 28.7975 9.40682 28.7998 9.69439V22.3067C28.7971 22.6519 28.7773 23.0496 28.6553 23.4278C28.5267 23.826 28.3158 24.1916 28.0381 24.5C27.6868 24.8901 27.2196 25.1361 26.875 25.3321L16.2188 31.3917C15.892 31.5774 15.4638 31.8376 14.9805 31.9395C14.5978 32.02 14.202 32.0201 13.8193 31.9395C13.3361 31.8376 12.9087 31.5774 12.582 31.3917L1.9248 25.3321C1.58021 25.1362 1.11288 24.89 0.761719 24.5C0.484114 24.1916 0.273124 23.8259 0.144531 23.4278C0.0225141 23.0497 0.00274177 22.6518 0 22.3067V16.8584C2.97259 16.9126 6.06241 17.1123 7.54004 17.8135C8.77515 18.3998 9.7074 18.9371 10.5088 19.6202C11.2306 20.3487 11.7961 21.1886 12.418 22.3018C13.8369 24.8421 14.1139 26.8992 14.252 29.418H14.3174C14.4555 26.8982 14.731 24.8382 16.1523 22.2969C16.7736 21.1862 17.3394 20.3495 18.0596 19.6221L18.1182 19.5674C18.9085 18.9055 19.8187 18.3865 21.0254 17.8155C23.7889 16.5078 24.9638 16.253 27.7031 16.126C24.9638 15.999 23.791 15.6872 21.0293 14.3799C19.8067 13.8012 18.8844 13.2729 18.0879 12.5997C17.3566 11.8679 16.7817 11.0215 16.1523 9.89849C14.7284 7.35753 14.4555 5.29552 14.3174 2.77544H14.252C14.1139 5.29455 13.8396 7.35427 12.418 9.89458C11.7887 11.019 11.2145 11.8671 10.4824 12.5997C9.68573 13.2729 8.76276 13.8011 7.54004 14.3799C6.06179 15.0796 2.97228 15.2785 0 15.3331V9.69439C0.00274871 9.34942 0.0226614 8.95218 0.144531 8.57427C0.273116 8.17602 0.484057 7.8095 0.761719 7.50103C1.1129 7.11109 1.58024 6.86489 1.9248 6.669L12.582 0.609425C12.9087 0.423668 13.3362 0.163427 13.8193 0.0615738C14.1064 0.00115569 14.401 -0.0154905 14.6914 0.0146988Z" fill="#E05E18"/>
</svg>
