<svg width="10" height="10" viewBox="0 0 10 10" fill="none" xmlns="http://www.w3.org/2000/svg">
<g clip-path="url(#clip0_1_928)">
<path d="M4.7251 0.302002C7.1755 0.308146 9.16058 2.29637 9.16064 4.74829C9.16064 7.20425 7.16934 9.19458 4.71338 9.19458C2.25758 9.19439 0.26709 7.20384 0.26709 4.74829C0.267158 2.29623 2.25242 0.307907 4.70361 0.302002H4.7251ZM6.60498 4.15845L4.84229 5.18579C4.80668 5.20692 4.76552 5.21856 4.72412 5.21899C4.6849 5.21915 4.64635 5.20926 4.61182 5.19067L2.37354 3.97095V6.15942C2.37358 6.28402 2.42315 6.40332 2.51123 6.49146C2.59932 6.57955 2.71869 6.62906 2.84326 6.62915H6.60498C6.72968 6.62915 6.84981 6.57963 6.93799 6.49146C7.02591 6.40335 7.07564 6.2839 7.07568 6.15942V3.88403L6.60498 4.15845ZM2.84326 2.86743C2.71869 2.86753 2.59932 2.91801 2.51123 3.0061C2.42318 3.09426 2.37354 3.21353 2.37354 3.33813V3.43188L2.84326 3.69067L4.72412 4.71313L6.60498 3.61548L7.07568 3.33813C7.07568 3.21365 7.02588 3.09424 6.93799 3.0061C6.84981 2.91793 6.72968 2.86743 6.60498 2.86743H2.84326Z" fill="#1B99FA"/>
</g>
<defs>
<clipPath id="clip0_1_928">
<rect width="9.44828" height="9.44828" fill="white"/>
</clipPath>
</defs>
</svg>
