<svg width="10" height="10" viewBox="0 0 10 10" fill="none" xmlns="http://www.w3.org/2000/svg">
<g clip-path="url(#clip0_37_400)">
<path fill-rule="evenodd" clip-rule="evenodd" d="M4.8175 2.15523C5.00334 1.68676 5.69333 1.70241 5.84552 2.20213L6.09157 3.00948C6.28332 3.63943 6.77605 4.13256 7.40601 4.3243L8.21336 4.56997C8.72922 4.72707 8.72921 5.45742 8.21336 5.61452L7.40601 5.86057C6.77612 6.05231 6.28335 6.54514 6.09157 7.17501L5.84552 7.98274C5.68836 8.49844 4.95814 8.49842 4.80097 7.98274L4.55492 7.17501C4.36315 6.54515 3.87035 6.05232 3.24048 5.86057L2.43275 5.61452C1.91713 5.45731 1.9171 4.72714 2.43275 4.56997L3.24048 4.3243C3.87042 4.13255 4.36317 3.63943 4.55492 3.00948L4.80097 2.20213L4.8175 2.15523ZM5.2427 3.21862C4.98125 4.07761 4.30859 4.7502 3.44962 5.0117L3.18397 5.09244L3.44962 5.17317C4.30857 5.43468 4.98126 6.10728 5.2427 6.96625L5.32305 7.23114L5.40379 6.96625C5.66524 6.10726 6.3379 5.43467 7.19687 5.17317L7.46214 5.09244L7.19687 5.0117C6.33788 4.75022 5.66525 4.07762 5.40379 3.21862L5.32305 2.95296L5.2427 3.21862Z" fill="#141414" fill-opacity="0.6"/>
<path d="M2.04637 0.771973C2.24811 0.772106 2.41189 0.935451 2.41199 1.1372V1.84651H3.12053C3.32243 1.84653 3.48614 2.01023 3.48614 2.21213C3.48604 2.41394 3.32236 2.57773 3.12053 2.57774H2.41199V3.28628C2.41199 3.48811 2.24817 3.65176 2.04637 3.6519C1.84446 3.6519 1.68076 3.4882 1.68076 3.28628V2.57774H0.971448C0.76966 2.57767 0.605942 2.41391 0.605835 2.21213C0.605835 2.01026 0.769594 1.84658 0.971448 1.84651H1.68076V1.1372C1.68085 0.935369 1.84452 0.771973 2.04637 0.771973Z" fill="#141414" fill-opacity="0.6"/>
</g>
<defs>
<clipPath id="clip0_37_400">
<rect width="9.44828" height="9.44828" fill="white"/>
</clipPath>
</defs>
</svg>
