<svg width="16" height="16" viewBox="0 0 16 16" fill="none" xmlns="http://www.w3.org/2000/svg">
<path d="M13.684 7.68911C13.684 7.13107 13.6838 6.75167 13.6598 6.45842C13.6365 6.17273 13.594 6.02643 13.5421 5.92452C13.4172 5.67935 13.2178 5.47993 12.9726 5.35499C12.8707 5.30306 12.7244 5.2606 12.4387 5.23726C12.1454 5.21331 11.766 5.21308 11.208 5.21308H1.95485V10.5565C1.95485 11.1145 1.95508 11.4939 1.97904 11.7872C2.00238 12.0729 2.04483 12.2192 2.09676 12.3211C2.2217 12.5663 2.42112 12.7657 2.66629 12.8906C2.76821 12.9425 2.91451 12.985 3.20019 13.0083C3.49344 13.0323 3.87284 13.0325 4.43088 13.0325H11.208C11.766 13.0325 12.1454 13.0323 12.4387 13.0083C12.7244 12.985 12.8707 12.9425 12.9726 12.8906C13.2178 12.7657 13.4172 12.5663 13.5421 12.3211C13.594 12.2192 13.6365 12.0729 13.6598 11.7872C13.6838 11.4939 13.684 11.1145 13.684 10.5565V7.68911ZM3.38855 2.6066C3.01285 2.6066 2.7701 2.60742 2.58548 2.62251C2.4085 2.63697 2.34279 2.66146 2.31057 2.67787C2.18809 2.74032 2.08858 2.83983 2.02613 2.96232C2.00971 2.99453 1.98523 3.06025 1.97076 3.23722C1.9575 3.39957 1.95578 3.60677 1.95549 3.90984H7.41663L7.16145 3.39885C6.93117 2.93828 6.87786 2.85059 6.81846 2.79241C6.74947 2.72486 6.66602 2.67372 6.57474 2.64224C6.49615 2.61515 6.39397 2.6066 5.87921 2.6066H3.38855ZM14.9873 10.5565C14.9873 11.0931 14.9879 11.5348 14.9586 11.8935C14.9287 12.2597 14.8646 12.5967 14.7035 12.9129C14.4536 13.4032 14.0547 13.8021 13.5644 14.052C13.2482 14.2131 12.9112 14.2772 12.545 14.3071C12.1863 14.3364 11.7446 14.3358 11.208 14.3358H4.43088C3.89428 14.3358 3.45256 14.3364 3.09392 14.3071C2.72767 14.2772 2.39072 14.2131 2.07449 14.052C1.58414 13.8021 1.1853 13.4032 0.935425 12.9129C0.774296 12.5967 0.710178 12.2597 0.68025 11.8935C0.650948 11.5348 0.651614 11.0931 0.651614 10.5565V4.04029C0.651614 3.6861 0.650915 3.38096 0.671341 3.13095C0.692395 2.87339 0.73919 2.61702 0.864791 2.37052C1.05218 2.00286 1.35111 1.70393 1.71877 1.51654C1.96528 1.39094 2.22165 1.34414 2.47921 1.32309C2.72921 1.30266 3.03436 1.30336 3.38855 1.30336H5.87921C6.29974 1.30336 6.66544 1.29493 6.99982 1.41027C7.27371 1.50475 7.52336 1.65871 7.73035 1.86144C7.98304 2.10893 8.13919 2.43984 8.32724 2.81596L8.87387 3.90984H11.208C11.7446 3.90984 12.1863 3.90917 12.545 3.93848C12.9112 3.96841 13.2482 4.03252 13.5644 4.19365C14.0547 4.44353 14.4536 4.84237 14.7035 5.33272C14.8646 5.64895 14.9287 5.9859 14.9586 6.35214C14.9879 6.71078 14.9873 7.15251 14.9873 7.68911V10.5565Z" fill="#141414" fill-opacity="0.6"/>
</svg>
