<svg width="24" height="24" viewBox="0 0 24 24" fill="none" xmlns="http://www.w3.org/2000/svg">
<path d="M11.3201 11.8381C11.7433 11.4928 12.3669 11.5173 12.7614 11.9118L19.4945 18.6448C19.9152 19.0655 19.9152 19.7469 19.4945 20.1676C19.0738 20.5883 18.3924 20.5883 17.9716 20.1676L12 14.196L6.02836 20.1676C5.60765 20.5883 4.92624 20.5883 4.50553 20.1676C4.08483 19.7469 4.08483 19.0655 4.50553 18.6448L11.2386 11.9118L11.3201 11.8381ZM11.3201 3.75845C11.7433 3.41309 12.3669 3.43759 12.7614 3.83209L19.4945 10.5651C19.9152 10.9859 19.9152 11.6673 19.4945 12.088C19.0738 12.5087 18.3924 12.5087 17.9716 12.088L12 6.11633L6.02836 12.088C5.60765 12.5087 4.92624 12.5087 4.50553 12.088C4.08483 11.6673 4.08483 10.9859 4.50553 10.5651L11.2386 3.83209L11.3201 3.75845Z" fill="white"/>
</svg>
