<svg width="10" height="10" viewBox="0 0 10 10" fill="none" xmlns="http://www.w3.org/2000/svg">
<path d="M4.72416 1.57471C5.85072 1.57471 6.76941 2.07246 7.44992 2.64041C8.12948 3.20757 8.5952 3.86369 8.82856 4.23319C8.86989 4.29862 8.92603 4.3821 8.9612 4.49692L8.97504 4.54805L8.98888 4.6334C8.99807 4.72229 8.99344 4.81994 8.97504 4.90021C8.94251 5.04198 8.87579 5.1403 8.82856 5.21508C8.5952 5.58458 8.12948 6.24069 7.44992 6.80786C6.76941 7.37581 5.85072 7.87356 4.72416 7.87356C3.5977 7.87351 2.67926 7.37577 1.99878 6.80786C1.3192 6.24067 0.853109 5.58457 0.619757 5.21508C0.572534 5.14031 0.506181 5.04191 0.473666 4.90021C0.449126 4.79315 0.449126 4.65512 0.473666 4.54805C0.506181 4.40635 0.572534 4.30796 0.619757 4.23319C0.853109 3.8637 1.3192 3.2076 1.99878 2.64041C2.67926 2.0725 3.5977 1.57475 4.72416 1.57471ZM4.72416 2.36206C3.84108 2.36211 3.09522 2.75103 2.50318 3.24515C1.91033 3.73998 1.49534 4.32136 1.28563 4.65339C1.27171 4.67542 1.26185 4.69113 1.25372 4.70453C1.24836 4.71335 1.24493 4.7195 1.24257 4.72375V4.72413C1.24493 4.72839 1.24824 4.73471 1.25372 4.74374C1.26185 4.75713 1.27171 4.77284 1.28563 4.79487C1.49534 5.12691 1.91033 5.70829 2.50318 6.20312C3.09522 6.69723 3.84108 7.08615 4.72416 7.0862C5.60731 7.0862 6.35345 6.69726 6.94552 6.20312C7.53837 5.70828 7.95338 5.1269 8.16308 4.79487C8.17698 4.77285 8.18647 4.75713 8.1946 4.74374C8.20007 4.73474 8.20338 4.7284 8.20575 4.72413C8.20338 4.71986 8.20007 4.71352 8.1946 4.70453C8.18647 4.69114 8.17698 4.67541 8.16308 4.65339C7.95338 4.32137 7.53837 3.73999 6.94552 3.24515C6.35345 2.751 5.60731 2.36206 4.72416 2.36206ZM5.51152 4.72413C5.51152 4.28929 5.159 3.93678 4.72416 3.93678C4.28939 3.93686 3.9368 4.28934 3.9368 4.72413C3.9368 5.15892 4.28939 5.5114 4.72416 5.51149C5.159 5.51149 5.51152 5.15898 5.51152 4.72413ZM1.24295 4.73374V4.73297L1.24257 4.73221C1.24261 4.73286 1.24292 4.73336 1.24295 4.73374ZM6.29887 4.72413C6.29887 5.59382 5.59385 6.29884 4.72416 6.29884C3.85454 6.29876 3.14945 5.59377 3.14945 4.72413C3.14945 3.8545 3.85454 3.14951 4.72416 3.14942C5.59385 3.14942 6.29887 3.85444 6.29887 4.72413Z" fill="#141414" fill-opacity="0.6"/>
</svg>
