<svg width="10" height="10" viewBox="0 0 10 10" fill="none" xmlns="http://www.w3.org/2000/svg">
<path d="M5.89136 1.62229C6.47995 1.03382 7.43421 1.03375 8.02276 1.62229C8.61131 2.21084 8.61123 3.16509 8.02276 3.75369L3.93719 7.83925C3.83256 7.94389 3.74282 8.03611 3.63502 8.10721C3.54618 8.1658 3.44984 8.21246 3.3486 8.24523C3.22574 8.285 3.09774 8.29733 2.95069 8.31366L1.61818 8.46168C1.49934 8.47487 1.38095 8.4332 1.2964 8.34865C1.21184 8.26409 1.17018 8.14571 1.18337 8.02686L1.33138 6.69435C1.34772 6.54731 1.36005 6.4193 1.39982 6.29645C1.43259 6.19521 1.47925 6.09887 1.53783 6.01003C1.60894 5.90222 1.70116 5.81249 1.8058 5.70785L5.89136 1.62229ZM2.36248 6.26454C2.23564 6.39138 2.21178 6.41766 2.19486 6.44331C2.17533 6.47292 2.16004 6.50529 2.14911 6.53904C2.13966 6.56826 2.13392 6.60308 2.11413 6.78124L2.02032 7.62434L2.86381 7.53092C3.04196 7.51112 3.07678 7.50539 3.10601 7.49594C3.13976 7.48501 3.17213 7.46971 3.20174 7.45019C3.22738 7.43326 3.25366 7.40941 3.38051 7.28257L6.0067 4.65638L4.98867 3.63835L2.36248 6.26454ZM7.46607 2.17897C7.18501 1.89791 6.72916 1.89799 6.44805 2.17897L5.54535 3.08167L6.56338 4.09969L7.46607 3.197C7.74706 2.91589 7.74714 2.46004 7.46607 2.17897Z" fill="#141414" fill-opacity="0.6"/>
</svg>
