<svg width="16" height="16" viewBox="0 0 16 16" fill="none" xmlns="http://www.w3.org/2000/svg">
<path d="M12.1988 12.3973C12.4284 12.1202 12.8393 12.0812 13.1164 12.3108C13.3932 12.5404 13.4317 12.9514 13.2023 13.2284C13.022 13.4461 12.8024 13.6306 12.5526 13.768C12.2718 13.9225 11.9748 13.982 11.6662 14.0092C11.3667 14.0356 11 14.0353 10.5678 14.0353H5.07169C4.6395 14.0353 4.2723 14.0356 3.97272 14.0092C3.6641 13.982 3.36708 13.9224 3.08629 13.768C2.83656 13.6306 2.61686 13.446 2.43658 13.2284C2.2072 12.9513 2.24604 12.5403 2.52312 12.3108C2.80027 12.0815 3.21123 12.1203 3.44073 12.3973C3.51998 12.4929 3.61321 12.5701 3.71436 12.6258C3.77253 12.6577 3.86805 12.6917 4.08726 12.7111C4.31632 12.7313 4.61636 12.7321 5.07169 12.7321H10.5678C11.0231 12.7321 11.3226 12.7313 11.5516 12.7111C11.7713 12.6917 11.8664 12.6578 11.9245 12.6258C12.0259 12.57 12.1194 12.4931 12.1988 12.3973Z" fill="#141414" fill-opacity="0.6"/>
<path d="M7.81944 4.9858C8.53428 4.9858 9.11378 5.5653 9.11378 6.28014C9.11369 6.9949 8.53423 7.57447 7.81944 7.57447C7.10466 7.57447 6.5252 6.9949 6.52511 6.28014C6.52511 5.5653 7.1046 4.9858 7.81944 4.9858Z" fill="#141414" fill-opacity="0.6"/>
<path fill-rule="evenodd" clip-rule="evenodd" d="M10.9573 1.13208C11.4524 1.13208 11.8668 1.13161 12.2039 1.16135C12.55 1.19193 12.8745 1.25834 13.1794 1.42607C13.6459 1.68283 14.0167 2.08703 14.2459 2.57277C14.3929 2.88437 14.4514 3.21579 14.4788 3.5782C14.5058 3.93441 14.5056 4.37403 14.5056 4.91135V7.64828C14.5056 8.18564 14.5058 8.62519 14.4788 8.98143C14.4514 9.34385 14.3929 9.67526 14.2459 9.98686C14.0167 10.4726 13.6459 10.8774 13.1794 11.1342C12.8746 11.3018 12.5499 11.3677 12.2039 11.3983C11.8668 11.428 11.4525 11.4276 10.9573 11.4276H4.68225C4.18708 11.4276 3.77272 11.428 3.43564 11.3983C3.08953 11.3677 2.76497 11.3018 2.46012 11.1342C1.99346 10.8774 1.62287 10.4727 1.3936 9.98686C1.24655 9.67519 1.18813 9.34394 1.1607 8.98143C1.13375 8.62519 1.13397 8.18566 1.13397 7.64828V4.91135C1.13397 4.37403 1.13375 3.93441 1.1607 3.5782C1.18814 3.21581 1.24659 2.88436 1.3936 2.57277C1.62288 2.08708 1.99358 1.68278 2.46012 1.42607C2.765 1.25842 3.08949 1.1919 3.43564 1.16135C3.77272 1.13164 4.18709 1.13208 4.68225 1.13208H10.9573ZM4.68225 2.43532C4.16394 2.43532 3.81673 2.43601 3.55019 2.4595C3.29326 2.48218 3.17038 2.52254 3.0882 2.56768C2.87376 2.68567 2.68997 2.87935 2.57212 3.12894C2.52189 3.23539 2.48202 3.38753 2.46012 3.67684C2.43776 3.97245 2.43721 4.35422 2.43721 4.91135V7.64828C2.43721 8.20541 2.43778 8.58717 2.46012 8.8828C2.48202 9.17221 2.52188 9.32422 2.57212 9.43069C2.68997 9.68045 2.87366 9.87391 3.0882 9.99195C3.17038 10.0371 3.29308 10.0774 3.55019 10.1001C3.81674 10.1236 4.16393 10.1243 4.68225 10.1243H10.9573C11.4756 10.1243 11.8228 10.1236 12.0893 10.1001C12.3464 10.0774 12.4692 10.0372 12.5513 9.99195C12.7657 9.87389 12.9496 9.68033 13.0674 9.43069C13.1176 9.32423 13.1575 9.17199 13.1794 8.8828C13.2017 8.58718 13.2023 8.20538 13.2023 7.64828V4.91135C13.2023 4.35422 13.2018 3.97245 13.1794 3.67684C13.1575 3.3875 13.1176 3.2354 13.0674 3.12894C12.9496 2.8793 12.7658 2.68572 12.5513 2.56768C12.4692 2.52248 12.3464 2.48222 12.0893 2.4595C11.8228 2.43599 11.4756 2.43532 10.9573 2.43532H4.68225Z" fill="#141414" fill-opacity="0.6"/>
</svg>
