<svg width="8" height="8" viewBox="0 0 8 8" fill="none" xmlns="http://www.w3.org/2000/svg">
<g clip-path="url(#clip0_37_444)">
<path d="M0.891296 2.78315C0.891296 2.34244 0.891296 1.89096 0.997016 1.65959C1.1138 1.40401 1.31875 1.19906 1.57433 1.08228C1.80569 0.976562 2.10309 0.976562 2.69789 0.976562H4.86114C5.45594 0.976562 5.75334 0.976562 5.98471 1.08228C6.24029 1.19906 6.44524 1.40401 6.56202 1.65959C6.66774 1.89096 6.66774 2.18836 6.66774 2.78315C6.66774 3.37795 6.66774 3.99029 6.56202 4.22166C6.44524 4.47724 6.24029 4.68219 5.98471 4.79897C5.75334 4.90469 5.45594 4.90469 4.86114 4.90469H2.69789C2.10309 4.90469 1.80569 4.90469 1.57433 4.79897C1.31875 4.68219 1.1138 4.47724 0.997016 4.22166C0.891296 3.99029 0.891296 3.22387 0.891296 2.78315Z" fill="#4B8AFF"/>
<path d="M1.26025 6.02874C1.26025 5.72309 1.50803 5.47532 1.81367 5.47532H5.74529C6.05094 5.47532 6.29871 5.72309 6.29871 6.02874C6.29871 6.33439 6.05094 6.58217 5.74529 6.58217H1.81367C1.50803 6.58217 1.26025 6.33439 1.26025 6.02874Z" fill="#4B8AFF"/>
</g>
<defs>
<clipPath id="clip0_37_444">
<rect width="7.55862" height="7.55862" fill="white"/>
</clipPath>
</defs>
</svg>
