<svg width="10" height="10" viewBox="0 0 10 10" fill="none" xmlns="http://www.w3.org/2000/svg">
<path d="M7.72304 4.75269C7.94177 4.75269 8.11909 4.93001 8.11909 5.14874V7.7231C8.11909 7.94183 7.94177 8.11915 7.72304 8.11915H5.14868C4.92995 8.11915 4.75263 7.94183 4.75263 7.7231C4.75263 7.50436 4.92995 7.32704 5.14868 7.32704H6.76694L5.26472 5.82482C5.11005 5.67015 5.11005 5.41945 5.26472 5.26478C5.41938 5.11011 5.67009 5.11011 5.82476 5.26478L7.32698 6.767V5.14874C7.32698 4.93001 7.5043 4.75269 7.72304 4.75269Z" fill="#141414"/>
<path d="M4.35658 1.38623C4.57531 1.38623 4.75263 1.56355 4.75263 1.78228C4.75263 2.00102 4.57531 2.17834 4.35658 2.17834H2.73832L4.24054 3.68056C4.39521 3.83523 4.39521 4.08594 4.24054 4.24061C4.08588 4.39527 3.83517 4.39527 3.6805 4.24061L2.17828 2.73838V4.35664C2.17828 4.57537 2.00096 4.75269 1.78222 4.75269C1.56349 4.75269 1.38617 4.57537 1.38617 4.35664V1.78228C1.38617 1.56355 1.56349 1.38623 1.78222 1.38623H4.35658Z" fill="#141414"/>
</svg>
