<svg width="10" height="10" viewBox="0 0 10 10" fill="none" xmlns="http://www.w3.org/2000/svg">
<path d="M7.41318 2.37223C7.49051 2.44957 7.49051 2.57495 7.41318 2.65229L5.31279 4.75268L7.41318 6.85307C7.49051 6.93041 7.49051 7.05579 7.41318 7.13313L7.13313 7.41318C7.05579 7.49051 6.93041 7.49051 6.85307 7.41318L4.75268 5.31279L2.65229 7.41318C2.57495 7.49051 2.44957 7.49051 2.37223 7.41318L2.09218 7.13313C2.01485 7.05579 2.01485 6.93041 2.09218 6.85307L4.19257 4.75268L2.09218 2.65229C2.01485 2.57495 2.01485 2.44957 2.09218 2.37223L2.37223 2.09218C2.44957 2.01485 2.57495 2.01485 2.65229 2.09218L4.75268 4.19257L6.85307 2.09218C6.93041 2.01485 7.05579 2.01485 7.13313 2.09218L7.41318 2.37223Z" fill="#141414"/>
</svg>
