<svg width="6" height="6" viewBox="0 0 6 6" fill="none" xmlns="http://www.w3.org/2000/svg">
<path d="M0 2.75575C0 1.89974 0 1.47173 0.139846 1.13411C0.326307 0.683955 0.683955 0.326307 1.13411 0.139846C1.47173 0 1.89974 0 2.75575 0C3.61176 0 4.03976 0 4.37738 0.139846C4.82754 0.326307 5.18519 0.683955 5.37165 1.13411C5.5115 1.47173 5.5115 1.89974 5.5115 2.75575C5.5115 3.61176 5.5115 4.03976 5.37165 4.37738C5.18519 4.82754 4.82754 5.18519 4.37738 5.37165C4.03976 5.5115 3.61176 5.5115 2.75575 5.5115C1.89974 5.5115 1.47173 5.5115 1.13411 5.37165C0.683955 5.18519 0.326307 4.82754 0.139846 4.37738C0 4.03976 0 3.61176 0 2.75575Z" fill="#EA3376"/>
</svg>
