<svg width="8" height="8" viewBox="0 0 8 8" fill="none" xmlns="http://www.w3.org/2000/svg">
<g clip-path="url(#clip0_1_895)">
<path fill-rule="evenodd" clip-rule="evenodd" d="M2.67701 0.335205C2.76398 0.335205 2.83448 0.405707 2.83448 0.492676V0.797469C2.87549 0.797443 2.91752 0.797162 2.96058 0.797162H4.59804C4.6411 0.797162 4.68313 0.797443 4.72414 0.797469V0.492676C4.72414 0.405707 4.79464 0.335205 4.88161 0.335205H5.19655C5.28352 0.335205 5.35402 0.405707 5.35402 0.492676V0.809464C5.38746 0.811353 5.41988 0.812748 5.45121 0.815308C5.68071 0.834059 5.88229 0.873776 6.06879 0.968781C6.36509 1.11975 6.60614 1.3608 6.75712 1.6571C6.85212 1.84361 6.89184 2.04519 6.91059 2.27469C6.92904 2.50055 6.92873 2.7803 6.92873 3.12786V4.76531C6.92873 5.11288 6.92904 5.39262 6.91059 5.61849C6.89184 5.84799 6.85212 6.04957 6.75712 6.23607C6.60614 6.53237 6.36509 6.77342 6.06879 6.92439C5.88229 7.0194 5.68071 7.05912 5.45121 7.07787C5.22534 7.09632 4.9456 7.09601 4.59804 7.09601H2.96058C2.61302 7.09601 2.33327 7.09632 2.10741 7.07787C1.87791 7.05912 1.67633 7.0194 1.48982 6.92439C1.19352 6.77342 0.952475 6.53237 0.801502 6.23607C0.706497 6.04957 0.66678 5.84799 0.648029 5.61849C0.629576 5.39262 0.629883 5.11288 0.629883 4.76531V3.12786L0.632036 2.65545C0.634282 2.51392 0.638806 2.38758 0.648029 2.27469C0.66678 2.04519 0.706497 1.84361 0.801502 1.6571C0.952475 1.3608 1.19352 1.11975 1.48982 0.968781C1.67633 0.873776 1.87791 0.834059 2.10741 0.815308C2.13874 0.812748 2.17115 0.811353 2.2046 0.809464V0.492676C2.2046 0.405707 2.2751 0.335205 2.36207 0.335205H2.67701ZM1.25977 4.76531C1.25977 5.12323 1.2599 5.37287 1.27576 5.56713C1.29133 5.75772 1.32054 5.86741 1.3628 5.95035C1.45337 6.12805 1.59785 6.27253 1.77555 6.36309C1.85849 6.40536 1.96818 6.43456 2.15877 6.45013C2.35303 6.466 2.60267 6.46613 2.96058 6.46613H4.59804C4.95595 6.46613 5.20559 6.466 5.39985 6.45013C5.59044 6.43456 5.70013 6.40536 5.78307 6.36309C5.96077 6.27253 6.10525 6.12805 6.19582 5.95035C6.23808 5.86741 6.26728 5.75772 6.28286 5.56713C6.29872 5.37287 6.29885 5.12323 6.29885 4.76531V3.63164H1.25977V4.76531ZM2.83448 1.42735V1.79366C2.83448 1.88063 2.76398 1.95144 2.67701 1.95144H2.36207C2.27515 1.95144 2.20468 1.88087 2.2046 1.79397V1.44027C2.18899 1.44131 2.1737 1.44182 2.15877 1.44304C1.96818 1.45861 1.85849 1.48782 1.77555 1.53008C1.59785 1.62065 1.45337 1.76513 1.3628 1.94283C1.32054 2.02577 1.29133 2.13546 1.27576 2.32605C1.26183 2.49666 1.26064 2.7099 1.26038 3.00176H6.29823C6.29798 2.7099 6.29679 2.49666 6.28286 2.32605C6.26728 2.13545 6.23808 2.02577 6.19582 1.94283C6.10525 1.76513 5.96077 1.62065 5.78307 1.53008C5.70013 1.48782 5.59044 1.45861 5.39985 1.44304C5.38492 1.44182 5.36963 1.44131 5.35402 1.44027V1.79366C5.35402 1.88063 5.28352 1.95144 5.19655 1.95144H4.88161C4.79469 1.95144 4.72422 1.88087 4.72414 1.79397V1.42735C4.68365 1.42732 4.64164 1.42705 4.59804 1.42705H2.96058C2.91697 1.42705 2.87497 1.42732 2.83448 1.42735Z" fill="#141414" fill-opacity="0.6"/>
</g>
<defs>
<clipPath id="clip0_1_895">
<rect width="7.55862" height="7.55862" fill="white"/>
</clipPath>
</defs>
</svg>
