<svg width="16" height="16" viewBox="0 0 16 16" fill="none" xmlns="http://www.w3.org/2000/svg">
<path d="M8.91836 1.30322C9.27814 1.30334 9.56998 1.59504 9.56998 1.95484C9.56998 2.31465 9.27814 2.60635 8.91836 2.60646H5.49862C4.94061 2.60646 4.56117 2.60669 4.26793 2.63065C3.98228 2.65399 3.83594 2.69645 3.73403 2.74837C3.48888 2.87331 3.28943 3.07274 3.1645 3.3179C3.11258 3.41981 3.07012 3.56614 3.04678 3.8518C3.02282 4.14505 3.02259 4.52446 3.02259 5.08249V9.12267C3.02259 9.77058 3.02833 9.96671 3.06714 10.1116C3.18764 10.5613 3.53886 10.9125 3.98857 11.033C4.13341 11.0718 4.32956 11.0775 4.97746 11.0775C5.33733 11.0775 5.62908 11.3693 5.62908 11.7291V12.9796L6.97177 11.9054C7.26883 11.6678 7.48611 11.49 7.73539 11.3626C7.94446 11.2558 8.16722 11.1782 8.39719 11.131C8.67143 11.0747 8.95216 11.0775 9.33262 11.0775H10.1408C10.6989 11.0775 11.0788 11.0773 11.3721 11.0533C11.6574 11.03 11.8035 10.9875 11.9054 10.9356C12.1505 10.8107 12.35 10.6112 12.4749 10.3661C12.5268 10.2642 12.5693 10.1179 12.5926 9.8322C12.6166 9.53894 12.6168 9.15955 12.6168 8.6015C12.6168 8.24173 12.9087 7.95006 13.2684 7.94988C13.6283 7.94988 13.9201 8.24162 13.9201 8.6015C13.9201 9.1381 13.9207 9.57983 13.8914 9.93847C13.8615 10.3047 13.7974 10.6417 13.6362 10.9579C13.3863 11.4482 12.9875 11.8471 12.4972 12.097C12.181 12.258 11.844 12.3222 11.4777 12.3521C11.1191 12.3814 10.6773 12.3808 10.1408 12.3808H9.33262C8.90007 12.3808 8.77401 12.384 8.65937 12.4075C8.5444 12.4311 8.43298 12.4699 8.32846 12.5233C8.22423 12.5766 8.12353 12.6533 7.78566 12.9236L6.2317 14.167C6.10629 14.2673 5.97716 14.3712 5.86452 14.4457C5.76196 14.5135 5.56308 14.635 5.30454 14.6354C5.00695 14.6357 4.72534 14.5001 4.53965 14.2675C4.37841 14.0655 4.34843 13.8345 4.33729 13.712C4.32508 13.5776 4.32583 13.4118 4.32583 13.2513V12.3738C4.07057 12.3653 3.85163 12.3454 3.65131 12.2917C2.75185 12.0507 2.04945 11.3483 1.80844 10.4488C1.71404 10.0965 1.71935 9.68669 1.71935 9.12267V5.08249C1.71935 4.54589 1.71869 4.10417 1.74799 3.74553C1.77792 3.37929 1.84204 3.04233 2.00317 2.7261C2.25303 2.23576 2.6519 1.83691 3.14223 1.58704C3.45845 1.42591 3.79543 1.36179 4.16166 1.33186C4.52028 1.30256 4.96205 1.30322 5.49862 1.30322H8.91836Z" fill="#141414" fill-opacity="0.6"/>
<path d="M12.8294 1.78303C13.2056 1.40695 13.8155 1.40698 14.1918 1.78303C14.568 2.15929 14.568 2.76983 14.1918 3.14609L10.422 6.91518C10.2258 7.11144 9.98104 7.25215 9.71252 7.32244L8.79427 7.56298C8.56291 7.62354 8.35193 7.41253 8.41246 7.18117L8.65237 6.26292C8.72265 5.99439 8.86335 5.74904 9.05963 5.55276L12.8294 1.78303Z" fill="#141414" fill-opacity="0.6"/>
</svg>
