<svg width="16" height="16" viewBox="0 0 16 16" fill="none" xmlns="http://www.w3.org/2000/svg">
<path d="M10.7956 7.07548C10.7956 5.02081 9.13018 3.35489 7.07554 3.35475C5.02078 3.35475 3.35482 5.02072 3.35482 7.07548C3.35495 9.13012 5.02087 10.7956 7.07554 10.7956C8.07319 10.7955 8.97833 10.4021 9.64639 9.76278C9.66306 9.74129 9.68075 9.72015 9.70048 9.70042C9.7202 9.68069 9.74136 9.66299 9.76284 9.64633C10.4021 8.97827 10.7956 8.07313 10.7956 7.07548ZM12.0989 7.07548C12.0988 8.22754 11.71 9.28821 11.0578 10.1357L13.3964 12.4749C13.6509 12.7294 13.6509 13.1419 13.3964 13.3963C13.1419 13.6508 12.7294 13.6508 12.475 13.3963L10.1357 11.0577C9.28827 11.71 8.2276 12.0988 7.07554 12.0988C4.30111 12.0988 2.05171 9.84988 2.05157 7.07548C2.05157 4.30096 4.30102 2.05151 7.07554 2.05151C9.84994 2.05165 12.0989 4.30105 12.0989 7.07548Z" fill="#141414" fill-opacity="0.6"/>
</svg>
