<svg width="16" height="16" viewBox="0 0 16 16" fill="none" xmlns="http://www.w3.org/2000/svg">
<path d="M1.88034 3.71542C1.88034 3.10232 1.88034 2.79577 1.99966 2.5616C2.10461 2.35561 2.27208 2.18814 2.47807 2.08318C2.71224 1.96387 3.01879 1.96387 3.6319 1.96387H5.46596C6.07906 1.96387 6.38561 1.96387 6.61978 2.08318C6.82577 2.18814 6.99324 2.35561 7.0982 2.5616C7.21751 2.79577 7.21751 3.10232 7.21751 3.71542V11.9235C7.21751 12.5366 7.21751 12.8431 7.0982 13.0773C6.99324 13.2833 6.82577 13.4507 6.61978 13.5557C6.38561 13.675 6.07906 13.675 5.46596 13.675H3.6319C3.01879 13.675 2.71224 13.675 2.47807 13.5557C2.27208 13.4507 2.10461 13.2833 1.99966 13.0773C1.88034 12.8431 1.88034 12.5366 1.88034 11.9235V3.71542Z" fill="#E05E18"/>
<path d="M8.64435 3.71552C8.64435 3.10242 8.64435 2.79587 8.76367 2.56169C8.86862 2.35571 9.03609 2.18824 9.24208 2.08328C9.47625 1.96396 9.7828 1.96396 10.3959 1.96396H12.0068C12.6199 1.96396 12.9265 1.96396 13.1607 2.08328C13.3666 2.18824 13.5341 2.35571 13.6391 2.56169C13.7584 2.79587 13.7584 3.10242 13.7584 3.71552V5.32645C13.7584 5.93955 13.7584 6.2461 13.6391 6.48028C13.5341 6.68626 13.3666 6.85373 13.1607 6.95869C12.9265 7.07801 12.6199 7.07801 12.0068 7.07801H10.3959C9.7828 7.07801 9.47625 7.07801 9.24208 6.95869C9.03609 6.85373 8.86862 6.68626 8.76367 6.48028C8.64435 6.2461 8.64435 5.93955 8.64435 5.32645V3.71552Z" fill="#E05E18"/>
<path d="M8.64416 11.118C8.64416 10.9218 8.64416 10.8237 8.65002 10.7409C8.73255 9.57603 9.65933 8.64925 10.8242 8.56672C10.907 8.56086 11.0051 8.56086 11.2013 8.56086C11.3974 8.56086 11.4955 8.56086 11.5783 8.56672C12.7432 8.64925 13.67 9.57603 13.7525 10.7409C13.7584 10.8237 13.7584 10.9218 13.7584 11.118V12.0478C13.7584 12.544 13.7584 12.792 13.6794 12.9885C13.5682 13.2654 13.3487 13.4849 13.0718 13.5961C12.8753 13.6751 12.6273 13.6751 12.1311 13.6751H10.2714C9.77525 13.6751 9.52718 13.6751 9.33074 13.5961C9.05383 13.4849 8.83435 13.2654 8.72309 12.9885C8.64416 12.792 8.64416 12.544 8.64416 12.0478V11.118Z" fill="#E05E18"/>
</svg>
