<svg width="16" height="16" viewBox="0 0 16 16" fill="none" xmlns="http://www.w3.org/2000/svg">
<path fill-rule="evenodd" clip-rule="evenodd" d="M8.14525 1.30331C8.50513 1.30331 8.79687 1.59505 8.79687 1.95493C8.79687 2.31481 8.50513 2.60655 8.14525 2.60655H5.08251C4.52447 2.60655 4.14507 2.60677 3.85181 2.63073C3.56613 2.65407 3.41983 2.69653 3.31792 2.74845C3.07274 2.87339 2.87332 3.07281 2.74839 3.31798C2.69646 3.4199 2.654 3.5662 2.63066 3.85188C2.60671 4.14513 2.60648 4.52454 2.60648 5.08258V10.5564C2.60648 11.1145 2.60671 11.4939 2.63066 11.7871C2.654 12.0728 2.69646 12.2191 2.74839 12.321C2.86525 12.5504 3.0478 12.7387 3.27146 12.8645C3.32759 12.7767 3.3872 12.71 3.42673 12.6672C3.5299 12.5556 3.67191 12.4273 3.81745 12.2949L9.3295 7.2837C9.439 7.18416 9.54799 7.08473 9.64703 7.00753C9.75253 6.92534 9.88346 6.83842 10.0505 6.78417C10.2854 6.70791 10.5373 6.69994 10.7766 6.76126C10.9468 6.80491 11.0828 6.88372 11.1934 6.95917C11.2971 7.03 11.4118 7.12249 11.5274 7.21498L13.3499 8.67285C13.5722 8.85065 13.7681 9.00202 13.9188 9.19402C14.0944 9.41772 14.2191 9.67702 14.2841 9.95382C14.3399 10.1914 14.3356 10.4385 14.3356 10.7232C14.3356 10.8369 14.334 10.9457 14.3337 11.0496C14.3341 11.0589 14.3356 11.0682 14.3356 11.0776C14.3356 11.6416 14.341 12.0514 14.2466 12.4038C14.2256 12.482 14.1999 12.5584 14.1721 12.6335C14.1676 12.6462 14.1629 12.6589 14.1581 12.6717C14.15 12.6925 14.1425 12.7135 14.1339 12.734C14.1311 12.7408 14.1285 12.7476 14.1257 12.7544C14.1092 12.7929 14.0917 12.8308 14.0735 12.8683C14.0662 12.8833 14.0581 12.898 14.0506 12.9128C14.0342 12.945 14.0173 12.9769 13.9997 13.0083C13.9892 13.0268 13.9781 13.0448 13.9672 13.063C13.9508 13.0906 13.9344 13.1182 13.9169 13.1451C13.9078 13.1591 13.8989 13.1733 13.8896 13.1871C13.8605 13.2301 13.83 13.272 13.7986 13.3131C13.7926 13.3209 13.7862 13.3283 13.7801 13.336C13.7584 13.3637 13.7361 13.3907 13.7133 13.4175C13.6993 13.434 13.6851 13.4503 13.6707 13.4665C13.6064 13.5383 13.5382 13.6064 13.4664 13.6707C13.4514 13.6842 13.4365 13.6977 13.4212 13.7108C13.3934 13.7346 13.3648 13.7576 13.3359 13.7802C13.3282 13.7862 13.3208 13.7927 13.313 13.7986C13.2719 13.8301 13.23 13.8606 13.187 13.8896C13.1754 13.8975 13.1631 13.9043 13.1514 13.9119C13.1223 13.9309 13.0929 13.9494 13.0629 13.9673C13.0455 13.9777 13.0279 13.9878 13.0101 13.9978C12.9821 14.0137 12.9536 14.0288 12.9249 14.0436C12.9073 14.0527 12.8899 14.0623 12.872 14.071C12.8332 14.0899 12.7942 14.1087 12.7543 14.1257C12.7496 14.1277 12.7444 14.1288 12.7397 14.1308C12.726 14.1366 12.7121 14.1418 12.6983 14.1474C12.6767 14.1558 12.6552 14.1645 12.6334 14.1722C12.5583 14.2 12.482 14.2256 12.4037 14.2466C12.0513 14.341 11.6416 14.3357 11.0775 14.3357H4.60652C4.44934 14.3357 4.29569 14.3334 4.16299 14.3268C4.01289 14.3226 3.87384 14.3176 3.74554 14.3071C3.3793 14.2771 3.04235 14.213 2.72611 14.0519C2.23577 13.802 1.83693 13.4032 1.58705 12.9128C1.42592 12.5966 1.3618 12.2597 1.33187 11.8934C1.30257 11.5348 1.30324 11.093 1.30324 10.5564V5.08258C1.30324 4.54597 1.30257 4.10425 1.33187 3.74561C1.3618 3.37936 1.42592 3.04241 1.58705 2.72618C1.83693 2.23583 2.23577 1.83699 2.72611 1.58712C3.04235 1.42599 3.3793 1.36187 3.74554 1.33194C4.10418 1.30264 4.54591 1.30331 5.08251 1.30331H8.14525ZM10.4482 8.03587C10.3971 8.07566 10.3304 8.13563 10.2064 8.24841L4.94379 13.0318C4.98877 13.0319 5.03499 13.0325 5.08251 13.0325H10.7231C11.201 13.0325 11.5258 13.0324 11.7782 13.0147C12.0242 12.9974 12.1522 12.9656 12.2414 12.9275C12.2759 12.9128 12.3092 12.896 12.342 12.8785C12.4255 12.8339 12.5036 12.7809 12.5749 12.72C12.6287 12.6741 12.6787 12.6239 12.7244 12.5698C12.7835 12.4999 12.8349 12.4236 12.8784 12.342C12.897 12.3072 12.9145 12.2718 12.93 12.2351C12.9669 12.1462 12.9977 12.0185 13.0146 11.7782C13.0323 11.5259 13.0324 11.201 13.0324 10.7232C13.0324 10.3767 13.0284 10.3079 13.0152 10.2516C12.9936 10.1594 12.9521 10.0729 12.8937 9.99836C12.858 9.95292 12.8066 9.90679 12.5361 9.69037L10.7136 8.2325C10.5826 8.12771 10.5119 8.07174 10.4584 8.03523C10.4566 8.03405 10.4549 8.03311 10.4533 8.03205C10.4517 8.03328 10.45 8.0345 10.4482 8.03587Z" fill="#141414" fill-opacity="0.6"/>
<path fill-rule="evenodd" clip-rule="evenodd" d="M5.53877 3.58398C6.61841 3.58398 7.49363 4.4592 7.49363 5.53884C7.49363 6.61848 6.61841 7.4937 5.53877 7.4937C4.45913 7.4937 3.58391 6.61848 3.58391 5.53884C3.58391 4.4592 4.45913 3.58398 5.53877 3.58398ZM5.53877 4.88722C5.17889 4.88722 4.88715 5.17896 4.88715 5.53884C4.88715 5.89872 5.17889 6.19046 5.53877 6.19046C5.89865 6.19046 6.19039 5.89872 6.19039 5.53884C6.19039 5.17896 5.89865 4.88722 5.53877 4.88722Z" fill="#141414" fill-opacity="0.6"/>
<path d="M12.5908 0.876953C12.9507 0.876953 13.2424 1.16933 13.2424 1.52921V2.50664H14.2198C14.5797 2.50664 14.8715 2.79838 14.8715 3.15826C14.8713 3.51799 14.5796 3.80988 14.2198 3.80988H13.2424V4.78731C13.2422 5.14704 12.9506 5.43893 12.5908 5.43893C12.231 5.43893 11.9393 5.14704 11.9392 4.78731V3.80988H10.9617C10.602 3.80988 10.3103 3.51799 10.3101 3.15826C10.3101 2.79838 10.6018 2.50664 10.9617 2.50664H11.9392V1.52921C11.9392 1.16933 12.2309 0.876954 12.5908 0.876953Z" fill="#141414" fill-opacity="0.6"/>
</svg>
