<svg width="19" height="19" viewBox="0 0 19 19" fill="none" xmlns="http://www.w3.org/2000/svg">
<path d="M16.6667 9.16667C16.6667 5.02453 13.3088 1.66667 9.16667 1.66667C5.02453 1.66667 1.66667 5.02453 1.66667 9.16667C1.66667 11.0175 2.33849 12.7105 3.44971 14.0186C4.21342 13.0918 5.37041 12.5 6.66667 12.5H11.6667C12.9627 12.5 14.1191 13.092 14.8828 14.0186C15.9942 12.7104 16.6667 11.0177 16.6667 9.16667ZM6.66667 14.1667C5.84974 14.1667 5.1238 14.5591 4.66716 15.1668C5.92062 16.1083 7.47831 16.6667 9.16667 16.6667C10.8548 16.6667 12.412 16.1081 13.6654 15.1668C13.2087 14.5593 12.4834 14.1667 11.6667 14.1667H6.66667ZM11.6667 7.08333C11.6667 5.70262 10.5474 4.58333 9.16667 4.58333C7.78595 4.58333 6.66667 5.70262 6.66667 7.08333C6.66667 8.46405 7.78595 9.58333 9.16667 9.58333C10.5474 9.58333 11.6667 8.46405 11.6667 7.08333ZM18.3333 9.16667C18.3333 11.8703 17.1621 14.2996 15.3003 15.9774C15.2869 15.9897 15.2731 16.0017 15.2588 16.0132C13.6391 17.4554 11.506 18.3333 9.16667 18.3333C6.82714 18.3333 4.69343 17.4556 3.07373 16.0132C3.05944 16.0017 3.04562 15.9897 3.03223 15.9774C1.17068 14.2996 0 11.87 0 9.16667C0 4.10406 4.10406 0 9.16667 0C14.2293 0 18.3333 4.10406 18.3333 9.16667ZM13.3333 7.08333C13.3333 9.38452 11.4679 11.25 9.16667 11.25C6.86548 11.25 5 9.38452 5 7.08333C5 4.78215 6.86548 2.91667 9.16667 2.91667C11.4679 2.91667 13.3333 4.78215 13.3333 7.08333Z" fill="#141414" fill-opacity="0.6"/>
</svg>
