<svg width="24" height="24" viewBox="0 0 24 24" fill="none" xmlns="http://www.w3.org/2000/svg">
<path d="M18.2271 11.12C17.9741 10.79 17.6661 10.504 17.3801 10.218C16.6431 9.55801 15.8071 9.08502 15.1031 8.39202C14.2167 7.5234 13.7035 6.34908 13.5844 5.13187C13.4879 4.14471 13.4396 3.65113 13.3141 3.45132C13.0754 3.0714 12.6945 2.91108 12.2559 3.00592C12.0253 3.0558 11.8192 3.22122 11.4072 3.55205C8.55817 5.84004 7.43618 9.87701 8.77817 13.342C8.82217 13.452 8.86617 13.562 8.86617 13.705C8.86617 13.947 8.70117 14.167 8.48117 14.255C8.22817 14.365 7.96418 14.299 7.75518 14.123C7.68918 14.068 7.64518 14.013 7.60118 13.936C6.93747 13.0961 6.5717 12.0617 6.5022 11.0054C6.4434 10.1117 6.414 9.66479 6.2925 9.55593C6.18307 9.45788 6.04684 9.42824 5.90656 9.47196C5.75081 9.5205 5.58545 9.82742 5.25474 10.4413C4.55506 11.7399 4.21363 13.2553 4.3012 14.717C4.3672 15.267 4.4332 15.817 4.6202 16.367C4.7742 17.027 5.0712 17.687 5.40119 18.27C6.58919 20.1729 8.64617 21.5369 10.8572 21.8119C13.2111 22.1089 15.7301 21.6799 17.5341 20.0519C19.5471 18.226 20.2511 15.3 19.2171 12.792L19.0741 12.506C18.8431 12 18.2271 11.12 18.2271 11.12ZM14.7511 18.05C14.4431 18.314 13.9371 18.5999 13.5411 18.7099C12.3091 19.1499 11.0772 18.5339 10.3512 17.808C11.6602 17.5 12.4411 16.532 12.6721 15.553C12.8591 14.673 12.5071 13.947 12.3641 13.1C12.2321 12.286 12.2541 11.593 12.5511 10.834C12.7601 11.252 12.9801 11.67 13.2441 12C14.0911 13.1 15.4221 13.584 15.7081 15.08C15.7521 15.234 15.7741 15.388 15.7741 15.553C15.8071 16.455 15.4111 17.445 14.7511 18.05Z" fill="white"/>
</svg>
