<svg width="21" height="21" viewBox="0 0 21 21" fill="none" xmlns="http://www.w3.org/2000/svg">
<path fill-rule="evenodd" clip-rule="evenodd" d="M10.7076 4.79028C11.1207 3.74905 12.6543 3.78383 12.9926 4.89453L13.5394 6.68896C13.9656 8.08912 15.0608 9.18516 16.4609 9.61133L18.2554 10.1573C19.4019 10.5065 19.4019 12.1298 18.2554 12.479L16.4609 13.0259C15.0609 13.452 13.9657 14.5474 13.5394 15.9474L12.9926 17.7427C12.6432 18.8889 11.0202 18.8888 10.6709 17.7427L10.124 15.9474C9.69779 14.5474 8.60247 13.4521 7.20251 13.0259L5.40723 12.479C4.2612 12.1296 4.26114 10.5067 5.40723 10.1573L7.20251 9.61133C8.60265 9.18513 9.69784 8.08911 10.124 6.68896L10.6709 4.89453L10.7076 4.79028Z" fill="#E05E18"/>
<path d="M4.54846 1.71582C4.99686 1.71612 5.36088 2.07917 5.36108 2.52759V4.10413H6.93591C7.38466 4.10416 7.74853 4.46799 7.74853 4.91675C7.7483 5.3653 7.38451 5.72934 6.93591 5.72937H5.36108V7.3042C5.36108 7.75279 4.99698 8.11652 4.54846 8.11682C4.09969 8.11682 3.73584 7.75297 3.73584 7.3042V5.72937H2.1593C1.7108 5.72922 1.34692 5.36523 1.34668 4.91675C1.34668 4.46807 1.71065 4.10427 2.1593 4.10413H3.73584V2.52759C3.73605 2.07899 4.09982 1.71582 4.54846 1.71582Z" fill="#E05E18"/>
</svg>
