<svg width="28" height="28" viewBox="0 0 28 28" fill="none" xmlns="http://www.w3.org/2000/svg">
<path d="M13.1912 3.5L13.1912 24.5M16.4184 3.5H8.29116C6.33098 3.5 5.35089 3.5 4.6022 3.88148C3.94363 4.21703 3.4082 4.75247 3.07264 5.41103C2.69116 6.15972 2.69116 7.13982 2.69116 9.1V18.9C2.69116 20.8602 2.69116 21.8403 3.07264 22.589C3.4082 23.2475 3.94363 23.783 4.6022 24.1185C5.35089 24.5 6.33098 24.5 8.29116 24.5H18.0912C20.0513 24.5 21.0314 24.5 21.7801 24.1185C22.4387 23.783 22.9741 23.2475 23.3097 22.589C23.6912 21.8403 23.6912 19.0829 23.6912 17.1227" stroke="white" stroke-width="2.3" stroke-linecap="round" stroke-linejoin="round"/>
<path fill-rule="evenodd" clip-rule="evenodd" d="M22.1307 0.506743C22.4076 -0.191475 23.436 -0.16815 23.6628 0.576649L24.0296 1.77994C24.3154 2.71883 25.0497 3.4538 25.9886 3.73958L27.1919 4.10572C27.9608 4.33987 27.9608 5.4284 27.1919 5.66255L25.9886 6.02926C25.0498 6.31503 24.3154 7.04956 24.0296 7.98833L23.6628 9.19219C23.4286 9.9608 22.3403 9.96077 22.106 9.19219L21.7393 7.98833C21.4535 7.04957 20.719 6.31505 19.7802 6.02926L18.5764 5.66255C17.8079 5.42824 17.8079 4.33998 18.5764 4.10572L19.7802 3.73958C20.7191 3.45378 21.4535 2.71882 21.7393 1.77994L22.106 0.576649L22.1307 0.506743Z" fill="white"/>
</svg>
