<svg width="28" height="28" viewBox="0 0 28 28" fill="none" xmlns="http://www.w3.org/2000/svg">
<path d="M15.1667 16.3333L11.6667 12.8333M17.5121 4.08325V2.33325M22.108 5.90402L23.3454 4.66659M22.108 15.1666L23.3454 16.404M12.8454 5.90402L11.608 4.66659M23.9288 10.4999H25.6788M7.15327 24.3467L17.9301 13.5699C18.3921 13.1078 18.6231 12.8768 18.7097 12.6104C18.7858 12.3761 18.7858 12.1237 18.7097 11.8894C18.6231 11.623 18.3921 11.392 17.9301 10.93L17.0699 10.0699C16.6079 9.60783 16.3769 9.37682 16.1105 9.29027C15.8762 9.21413 15.6238 9.21413 15.3895 9.29027C15.1231 9.37682 14.8921 9.60783 14.4301 10.0699L3.65327 20.8467C3.19125 21.3087 2.96024 21.5397 2.87369 21.8061C2.79756 22.0404 2.79756 22.2928 2.87369 22.5271C2.96024 22.7935 3.19125 23.0245 3.65327 23.4865L4.51341 24.3467C4.97543 24.8087 5.20644 25.0397 5.47282 25.1262C5.70714 25.2024 5.95954 25.2024 6.19386 25.1262C6.46024 25.0397 6.69125 24.8087 7.15327 24.3467Z" stroke="white" stroke-width="2.3" stroke-linecap="round" stroke-linejoin="round"/>
</svg>
