<svg width="10" height="10" viewBox="0 0 10 10" fill="none" xmlns="http://www.w3.org/2000/svg">
<g clip-path="url(#clip0_14_256)">
<path d="M8.26724 4.72426C8.26724 2.76746 6.68094 1.18116 4.72414 1.18116C2.76733 1.18116 1.18103 2.76746 1.18103 4.72426C1.18103 6.68106 2.76733 8.26736 4.72414 8.26736C6.68094 8.26736 8.26724 6.68106 8.26724 4.72426ZM4.33046 6.29897V5.11794H3.14942C2.932 5.11794 2.75575 4.94168 2.75575 4.72426C2.75575 4.50684 2.932 4.33058 3.14942 4.33058H4.33046V3.14955C4.33046 2.93212 4.50671 2.75587 4.72414 2.75587C4.94156 2.75587 5.11781 2.93212 5.11781 3.14955V4.33058H6.29885C6.51627 4.33058 6.69253 4.50684 6.69253 4.72426C6.69253 4.94168 6.51627 5.11794 6.29885 5.11794H5.11781V6.29897C5.11781 6.51639 4.94156 6.69265 4.72414 6.69265C4.50671 6.69265 4.33046 6.51639 4.33046 6.29897ZM9.0546 4.72426C9.0546 7.11591 7.11578 9.05472 4.72414 9.05472C2.33249 9.05472 0.393677 7.11591 0.393677 4.72426C0.393677 2.33261 2.33249 0.393799 4.72414 0.393799C7.11578 0.393799 9.0546 2.33261 9.0546 4.72426Z" fill="#141414" fill-opacity="0.6"/>
</g>
<defs>
<clipPath id="clip0_14_256">
<rect width="9.44828" height="9.44828" fill="white"/>
</clipPath>
</defs>
</svg>
