<svg width="58" height="14" viewBox="0 0 58 14" fill="none" xmlns="http://www.w3.org/2000/svg">
<path d="M1.65417 13.1118V0H3.79646V13.1118H1.65417Z" fill="#141414"/>
<path d="M5.8916 9.72203V4.18994H8.04249V9.73923C8.04249 10.4218 8.19162 10.9036 8.48987 11.1846C8.79387 11.4657 9.21257 11.6062 9.74599 11.6062C10.2221 11.6062 10.6408 11.4772 11.0021 11.219C11.3635 10.9609 11.6416 10.6369 11.8367 10.2468V4.18994H13.9875V13.1118H11.9657L11.9055 11.9676H11.8711C11.5613 12.3805 11.1598 12.7046 10.6666 12.9398C10.179 13.1749 9.62841 13.2925 9.01469 13.2925C8.0855 13.2925 7.33126 13.0172 6.75195 12.4666C6.17838 11.9159 5.8916 11.0011 5.8916 9.72203Z" fill="#141414"/>
<path d="M0 0.00298224H2.28543V2.24639H0V0.00298224Z" fill="#141414"/>
<path d="M15.6717 13.1169V4.19503H17.6849L17.7365 5.34791H17.7795C18.0893 4.92347 18.4822 4.59653 18.9582 4.3671C19.4343 4.13194 19.9563 4.01436 20.5241 4.01436C21.1665 4.01436 21.7229 4.14628 22.1932 4.41012C22.6635 4.66823 23.0076 5.06113 23.2256 5.58881H23.26C23.6099 5.06113 24.0458 4.66823 24.5678 4.41012C25.0954 4.14628 25.6748 4.01436 26.3057 4.01436C27.2463 4.01436 27.9977 4.28967 28.5598 4.8403C29.1219 5.39093 29.403 6.30864 29.403 7.59344V13.1169H27.2521V7.54182C27.2521 6.89942 27.1115 6.43196 26.8305 6.13944C26.5552 5.84692 26.1508 5.70066 25.6174 5.70066C25.1585 5.70066 24.757 5.82684 24.4129 6.07921C24.0745 6.32585 23.8049 6.65565 23.6042 7.06862V13.1169H21.4619V7.55903C21.4561 6.90516 21.3127 6.43196 21.0317 6.13944C20.7564 5.84692 20.352 5.70066 19.8186 5.70066C19.3597 5.70066 18.9611 5.82684 18.6227 6.07921C18.2843 6.32585 18.0147 6.65565 17.814 7.06862V13.1169H15.6717Z" fill="#141414"/>
<path d="M30.8405 9.72713V4.19503H32.9913V9.74433C32.9913 10.4269 33.1405 10.9087 33.4387 11.1897C33.7427 11.4708 34.1614 11.6113 34.6948 11.6113C35.1709 11.6113 35.5896 11.4823 35.951 11.2241C36.3123 10.966 36.5905 10.642 36.7855 10.2519V4.19503H38.9364V13.1169H36.9146L36.8543 11.9727H36.8199C36.5102 12.3856 36.1087 12.7097 35.6154 12.9449C35.1279 13.18 34.5773 13.2976 33.9635 13.2976C33.0344 13.2976 32.2801 13.0223 31.7008 12.4717C31.1272 11.921 30.8405 11.0062 30.8405 9.72713Z" fill="#141414"/>
<path d="M40.0039 10.3638L42.1032 10.3724V10.4756C42.1032 10.946 42.2781 11.293 42.628 11.5167C42.9779 11.7346 43.4482 11.8436 44.039 11.8436C44.6413 11.8436 45.103 11.7404 45.4242 11.5339C45.7511 11.3274 45.9146 11.0463 45.9146 10.6907C45.9146 10.3408 45.7683 10.077 45.4758 9.8992C45.1833 9.72139 44.5237 9.52924 43.497 9.32276C42.4129 9.1048 41.6013 8.7836 41.0622 8.35916C40.523 7.92898 40.2534 7.34681 40.2534 6.61264C40.2534 5.8039 40.5918 5.15577 41.2687 4.66823C41.9512 4.18069 42.8661 3.93693 44.0132 3.93693C45.1718 3.93693 46.0953 4.18643 46.7835 4.68544C47.4776 5.18444 47.8246 5.86699 47.8246 6.73309V6.83633H45.7339V6.69867C45.7339 6.30864 45.5934 6.00752 45.3123 5.7953C45.0313 5.57734 44.5954 5.46836 44.0046 5.46836C43.4253 5.46836 43.0037 5.56013 42.7399 5.74368C42.476 5.92722 42.3441 6.17099 42.3441 6.47498C42.3441 6.77323 42.499 7.01127 42.8087 7.18907C43.1242 7.36115 43.7924 7.55042 44.8133 7.75691C45.9088 7.97487 46.7205 8.29893 47.2481 8.72911C47.7758 9.15355 48.0397 9.75294 48.0397 10.5273C48.0397 11.3934 47.7013 12.0845 47.0244 12.6007C46.3534 13.1112 45.364 13.3664 44.0562 13.3664C42.7542 13.3664 41.7533 13.1112 41.0536 12.6007C40.3538 12.0845 40.0039 11.3704 40.0039 10.4584V10.3638Z" fill="#141414"/>
<path d="M48.6082 8.78934V8.51402C48.6082 7.14892 49.0183 6.0448 49.8385 5.20165C50.6644 4.3585 51.7399 3.93693 53.0648 3.93693C54.3898 3.93693 55.4193 4.33269 56.1535 5.12422C56.8877 5.91001 57.2548 6.99119 57.2548 8.36776V9.14208H49.9762V7.7311H55.1211V7.57623C55.1268 6.99693 54.9576 6.51513 54.6135 6.13084C54.2751 5.74081 53.7646 5.54579 53.082 5.54579C52.3077 5.54579 51.7256 5.8125 51.3355 6.34592C50.9455 6.87935 50.7505 7.57337 50.7505 8.42799V8.85817C50.7505 9.71279 50.957 10.4068 51.3699 10.9402C51.7829 11.4736 52.411 11.7404 53.2541 11.7404C53.8105 11.7404 54.2837 11.6228 54.6737 11.3876C55.0695 11.1467 55.3907 10.8628 55.6373 10.5359L57.1257 11.5253C56.8389 12.0243 56.3629 12.4573 55.6975 12.8244C55.0322 13.1858 54.2263 13.3664 53.2799 13.3664C51.8059 13.3664 50.6587 12.9477 49.8385 12.1103C49.0183 11.2672 48.6082 10.1602 48.6082 8.78934Z" fill="#141414"/>
</svg>
